<?xml version="1.0" encoding="UTF-8"?>
<svg id="Layer_1" xmlns="http://www.w3.org/2000/svg" version="1.1" viewBox="0 0 1024 1024">
  <!-- Generator: Adobe Illustrator 30.1.0, SVG Export Plug-In . SVG Version: 2.1.1 Build 136)  -->
  <defs>
    <style>
      .st0 {
        opacity: .2;
      }

      .st0, .st1 {
        isolation: isolate;
      }

      .st2 {
        fill: #b0a092;
      }

      .st3 {
        fill: #fef3c6;
      }
    </style>
  </defs>
  <rect class="st2" width="1024" height="1024"/>
  <g>
    <path class="st0" d="M914.6,738l-16.1-10.4c.9-9.5.2-19.2-2.4-29l-137.4-512.9c-11.7-43.6-56.5-69.5-100.1-57.8l-485.2,130-21.7-14.1-42.2,42.2h0c-20.2,20-29.5,50-21.6,79.4l137.4,512.9c11.7,43.6,56.5,69.5,100.1,57.8l512.9-137.4c16.2-4.4,30-13.3,40.3-25.1l36-35.7h0Z"/>
    <rect class="st3" x="184.8" y="144.7" width="694.5" height="694.5" rx="81.8" ry="81.8" transform="translate(-109.2 154.5) rotate(-15)"/>
    <g class="st1">
      <g class="st1">
        <path d="M431.9,645.1l37.3-65.3c31.3,20.6,65.6,26.2,100.4,16.9,37.8-10.1,51.7-31.9,44.7-58-5.2-19.4-17.2-31.5-51.6-27.2l-36.5,4.8c-77.7,10.4-121.8-17.2-137.8-77-17.1-63.9,21-121.7,104.8-144.2,53.6-14.4,99.3-7.4,137,16.9l-37.6,65.9c-22.2-15.4-48.9-23-85.7-13.2-34.7,9.3-48,27.1-42.3,48.6,6.6,24.5,21.8,30.3,52.7,27l36.8-3.8c76.2-7.8,120.2,15.4,136.6,76.7,18.3,68.5-19,129.4-107.9,153.2-62.3,16.7-111.2,4.1-150.9-21.5Z"/>
      </g>
    </g>
    <g class="st1">
      <g class="st1">
        <path d="M797.9,686.6l-2.3-8.7,23.9-6.4-18-67.2-.8.2-15.8,25.2-7.5-4.8,16.5-26.6,15.6-4.2,20,74.6,22-5.9,2.3,8.7-55.8,15Z"/>
      </g>
    </g>
  </g>
</svg>